<svg width="19" height="17" viewBox="0 0 19 17" fill="none" xmlns="http://www.w3.org/2000/svg">
<path fill-rule="evenodd" clip-rule="evenodd" d="M3.66983 6.04022H1.96228C1.50967 6.04022 1.08108 6.23385 0.794609 6.56786C0.508135 6.90188 0.394161 7.34103 0.484313 7.76393C0.88127 9.6298 1.67785 13.7701 2.01341 15.348C2.15613 16.0184 2.77426 16.5 3.49158 16.5H15.3116C16.0289 16.5 16.647 16.0184 16.7898 15.348C17.1253 13.7701 18.027 9.6298 18.424 7.76393C18.5139 7.34103 18.4 6.90188 18.1137 6.56786C17.8272 6.23385 17.3986 6.04022 16.946 6.04022H15.175L13.1711 1.60875C12.8668 0.935824 12.1717 0.5 11.4032 0.5C10.3639 0.5 8.61095 0.5 7.58231 0.5C6.83132 0.5 6.14871 0.916441 5.8341 1.56665L3.66983 6.04022ZM1.74213 7.52057C1.72858 7.45753 1.74562 7.39213 1.78834 7.3424C1.83105 7.29267 1.89492 7.26389 1.96228 7.26389H16.946C17.0134 7.26389 17.0773 7.29267 17.12 7.3424C17.1627 7.39213 17.1795 7.45753 17.1662 7.52057C16.7692 9.38643 15.8675 13.5268 15.5317 15.1048C15.5106 15.2047 15.4184 15.2763 15.3116 15.2763H3.49158C3.38479 15.2763 3.29259 15.2047 3.27143 15.1048C2.93567 13.5268 2.13909 9.38643 1.74213 7.52057ZM13.7774 6.04022L11.9924 2.09332C11.8909 1.86895 11.6593 1.72368 11.4032 1.72368H7.58231C7.33198 1.72368 7.10445 1.86249 6.99971 2.07923L5.08331 6.04022H13.7774Z" fill="white"/>
</svg>
