<svg width="33" height="33" viewBox="0 0 33 33" fill="none" xmlns="http://www.w3.org/2000/svg">
<path d="M8.99219 10.2002C8.99219 8.21233 10.6102 6.59521 12.5972 6.59521C14.584 6.59521 16.2012 8.2132 16.2012 10.2002C16.2012 12.1872 14.5851 13.8042 12.5972 13.8042C10.6092 13.8042 8.99219 12.1881 8.99219 10.2002Z" stroke="#D9D9D9" stroke-opacity="0.7" stroke-width="0.5"/>
<path d="M4.75 23.0248C4.75 18.6988 8.27006 15.1778 12.597 15.1768H12.5971C14.1578 15.1768 15.6338 15.6335 16.8899 16.4619C13.7597 17.6622 11.3998 20.4157 10.7467 23.7748H5.5C5.08607 23.7748 4.75 23.4387 4.75 23.0248Z" stroke="#D9D9D9" stroke-opacity="0.7" stroke-width="0.5"/>
<path d="M12.5547 25.6571C12.5547 21.3301 16.0748 17.8091 20.4017 17.8091C24.7286 17.8091 28.2497 21.3302 28.2497 25.6571C28.2497 26.0712 27.9145 26.4071 27.4997 26.4071H13.3047C12.8908 26.4071 12.5547 26.071 12.5547 25.6571Z" stroke="#D9D9D9" stroke-opacity="0.7" stroke-width="0.5"/>
<path d="M16.7969 12.8321C16.7969 10.8441 18.414 9.22705 20.4009 9.22705C22.3888 9.22705 24.0059 10.8451 24.0059 12.8321C24.0059 14.8189 22.3888 16.4361 20.4009 16.4361C18.4139 16.4361 16.7969 14.8199 16.7969 12.8321Z" stroke="#D9D9D9" stroke-opacity="0.7" stroke-width="0.5"/>
</svg>
