<svg width="64" height="150" viewBox="0 0 64 150" fill="none" xmlns="http://www.w3.org/2000/svg">
<path d="M46.1376 20.816L46.92 20.8161L46.92 21.5871L46.92 21.5887L46.985 43.0003C46.9895 44.4722 45.8007 45.6663 44.3182 45.6707L20.6132 45.7421C19.1306 45.7466 17.9347 44.5597 17.9302 43.0878L17.8652 21.6762C17.8643 21.386 17.8642 21.1167 17.8643 20.9009L46.1361 20.8161L46.1376 20.816Z" stroke="#625644"/>
<path d="M19.8379 15.4411L22.1938 20.4526L20.3086 20.4849L17.9526 15.4734L19.8379 15.4411Z" stroke="#625644" stroke-width="0.5"/>
<path d="M46.6836 15.0065L44.1871 20.909L42.1411 20.9157L44.7438 15.0066L46.6836 15.0065Z" stroke="#625644" stroke-width="0.5"/>
<path d="M50.3767 10.0666L50.3754 12.234L50.3754 12.2342L50.3754 14.8914L48.1997 14.8914L48.199 14.8914L16.5007 14.9869L16.5003 14.9869L14.3094 14.9871L14.3092 10.1621L16.4849 10.1621L16.4856 10.1621L48.1839 10.0666L48.1843 10.0666L50.3767 10.0666Z" stroke="#625644" stroke-width="0.5"/>
<path d="M18.6534 129.185L17.871 129.185L17.871 128.414L17.871 128.412L17.806 107.001C17.8016 105.529 18.9903 104.335 20.4728 104.33L44.1778 104.259C45.6604 104.254 46.8563 105.441 46.8608 106.913L46.9258 128.325C46.9267 128.615 46.9268 128.884 46.9267 129.1L18.6549 129.185L18.6534 129.185Z" stroke="#625644"/>
<path d="M44.9533 134.56L42.5968 129.549L44.4821 129.516L46.8385 134.527L44.9533 134.56Z" stroke="#625644" stroke-width="0.5"/>
<path d="M18.1074 134.993L20.6039 129.091L22.6499 129.084L20.0472 134.993L18.1074 134.993Z" stroke="#625644" stroke-width="0.5"/>
<path d="M14.4143 139.933L14.4156 137.766L14.4156 137.766L14.4156 135.109L16.5913 135.109L16.5921 135.109L48.2903 135.013L48.2907 135.013L50.4817 135.013L50.4818 139.838L48.3061 139.838L48.3054 139.838L16.6071 139.933L16.6067 139.933L14.4143 139.933Z" stroke="#625644" stroke-width="0.5"/>
<path d="M64 116.249H0V33.7515H64V116.249Z" fill="#151515"/>
<path d="M63.5 115.749H0.5V34.2515H63.5V115.749Z" stroke="#F8D49E" stroke-opacity="0.34"/>
</svg>
