<svg width="12" height="13" viewBox="0 0 12 13" fill="none" xmlns="http://www.w3.org/2000/svg">
<path d="M6.74471 1.39759L7.84539 3.37768C7.9962 3.64947 8.37469 3.90767 8.68595 3.94257L10.5387 4.17425C11.7249 4.32003 12.0309 5.15753 11.2235 6.03476L9.84812 7.52088C9.61851 7.76993 9.49933 8.24504 9.59159 8.57114L10.0735 10.3208C10.4526 11.7021 9.73171 12.2747 8.46493 11.5962L6.69531 10.6482C6.37302 10.4749 5.86108 10.5001 5.5583 10.6947L3.87369 11.7794C2.66775 12.5547 1.90037 12.0443 2.16499 10.6379L2.50384 8.85797C2.5671 8.52526 2.41543 8.06097 2.16508 7.83256L0.662996 6.4621C-0.213623 5.656 0.0221821 4.79685 1.19032 4.55327L3.01428 4.17426C3.3221 4.10774 3.67883 3.82704 3.80408 3.54144L4.73854 1.47459C5.24932 0.361009 6.15046 0.325921 6.74471 1.39759Z" fill="#F8D49E"/>
</svg>
