<svg width="102" height="112" viewBox="0 0 102 112" fill="none" xmlns="http://www.w3.org/2000/svg">
<path d="M18.0144 32.813C17.5889 32.2392 18.3368 31.6533 18.8526 32.1416C19.8326 33.0693 29.6587 42.8961 31.2061 44.4708C32.7535 46.0456 33.5143 46.3507 34.3654 45.5451C35.2293 44.7272 34.0688 43.3478 33.5014 42.6886C32.934 42.0416 21.6766 29.0531 21.1221 28.4306C20.3871 27.6005 20.2324 27.2953 20.5805 26.9657C20.9287 26.6361 21.2511 26.7826 22.1279 27.4784C22.7985 28.0033 36.5059 38.6602 37.1894 39.1973C37.8728 39.7344 39.3429 40.8331 40.2068 40.0152C41.0708 39.1973 40.7484 38.4893 39.0721 37.0244C37.4086 35.5596 27.0281 26.2577 26.048 25.3299C25.5322 24.8417 26.1512 24.1458 26.7573 24.5365C27.6341 25.1224 44.1269 35.4131 46.1257 37.5127C50.0716 41.651 46.0999 46.9855 49.401 51.1238C48.3565 51.9905 47.1573 52.9793 45.8291 54.0657C41.4963 51.2702 36.003 54.8103 31.709 51.1482C29.491 49.2561 18.6205 33.643 18.0015 32.813H18.0144ZM77.8991 74.5616C75.6038 72.6939 64.6688 63.7826 57.3186 57.7889C56.2225 58.9852 54.8943 60.4256 53.4114 62.037C59.73 68.9829 68.9241 79.0783 70.8584 81.2267C73.8759 84.5593 77.9894 89.7351 82.4382 85.5237C86.887 81.3122 81.4195 77.4303 77.8991 74.5616ZM81.3292 39.8809C84.0243 34.9248 85.0817 29.4194 82.464 26.9413C79.8463 24.4632 74.0306 25.4642 68.7952 28.0155C63.5856 30.5546 59.975 34.2778 59.3302 38.2207C58.3115 44.4953 59.24 47.1198 55.6422 49.8298C53.6306 51.3557 25.6612 74.6104 22.1795 77.4913C18.7236 80.3478 18.066 83.0822 20.5418 85.487C20.5418 85.487 20.5676 85.5114 20.5805 85.5237C20.5805 85.5237 20.6063 85.5481 20.6192 85.5603C23.1595 87.9041 26.048 87.2693 29.0655 83.9977C32.1087 80.7018 56.6738 54.2244 58.2857 52.3201C61.1613 48.9265 63.9338 49.7932 70.5489 48.8288C74.714 48.2184 78.647 44.8004 81.3292 39.8687V39.8809ZM18.1434 77.4791L14.6875 75.587V35.9014L16.1188 35.1201C15.848 34.7417 15.6675 34.4853 15.603 34.3999C15.4999 34.2534 15.4225 34.0947 15.3451 33.936L13.2174 35.0957V76.3927L17.3052 78.6266C17.5502 78.2482 17.8339 77.8575 18.1434 77.4791ZM51 0L0 27.869V83.6193L51 111.488L102 83.6193V27.869L51 0ZM100.53 82.8259L51 109.901L1.47004 82.8259V28.6747L51 1.61135L100.53 28.6869V82.8259ZM33.6432 25.5497L51 16.0647L67.9312 25.3177C68.4728 25.0614 69.0273 24.8294 69.5689 24.6097L51 14.4655L32.2893 24.6952C32.7535 24.9881 33.2048 25.2811 33.6432 25.5619V25.5497ZM86.2938 35.3521L87.3125 35.9136V75.5992L84.8238 76.9664C85.1333 77.3326 85.4169 77.711 85.6877 78.1017L88.7955 76.4049V35.0957L86.6291 33.9116C86.5388 34.3877 86.4357 34.8638 86.3067 35.3399L86.2938 35.3521ZM70.3168 84.8767L51 95.4359L31.9927 85.0476C31.6832 85.3772 31.4511 85.6335 31.2705 85.8288C31.1803 85.9265 31.09 86.0119 30.9869 86.1096L50.9871 97.0473L71.3226 85.9387C70.9745 85.5969 70.6392 85.2429 70.3039 84.8889L70.3168 84.8767Z" fill="url(#paint0_linear_274_892)"/>
<defs>
<linearGradient id="paint0_linear_274_892" x1="7.14387" y1="105.446" x2="92.4755" y2="-2.45697" gradientUnits="userSpaceOnUse">
<stop stop-color="#FFE1A0"/>
<stop offset="1" stop-color="#4A341E"/>
</linearGradient>
</defs>
</svg>
