<svg width="22" height="32" viewBox="0 0 22 32" fill="none" xmlns="http://www.w3.org/2000/svg">
<path d="M2.54207 16.9393L2.10959 17.1902L2.54207 16.9393C1.53348 15.2009 1 13.2149 1 11.1964V11.156C1 5.54942 5.49336 1 11 1C16.5066 1 21 5.54942 21 11.156C21 13.2019 20.453 15.2111 19.4187 16.966L11.2633 30.8033C11.19 30.9275 11.0604 31 10.9245 31H10.9223C10.7862 30.9992 10.6569 30.9259 10.5843 30.8008C10.5843 30.8008 10.5843 30.8008 10.5843 30.8008L2.54207 16.9393ZM5.91094 11.3522C5.91094 14.1512 8.14868 16.4329 10.9246 16.4329C13.7004 16.4329 15.9382 14.1512 15.9382 11.3522C15.9382 8.5532 13.7004 6.27155 10.9246 6.27155C8.14868 6.27155 5.91094 8.5532 5.91094 11.3522Z" stroke="#CBAE83"/>
</svg>
