<svg width="50" height="50" viewBox="0 0 50 50" fill="none" xmlns="http://www.w3.org/2000/svg">
<rect x="0.25" y="0.25" width="49.5" height="49.5" stroke="#F8D49E" stroke-opacity="0.3" stroke-width="0.5"/>
<path fill-rule="evenodd" clip-rule="evenodd" d="M31.4342 18.6861L17.9882 23.7711C17.2524 23.9833 17.2764 24.7086 17.8202 24.8832L21.1892 25.9332L22.4784 29.8806C22.6352 30.3127 22.7634 30.4754 23.0304 30.479C23.3117 30.4829 23.4197 30.3803 23.7114 30.1224C24.0534 29.8016 24.5747 29.2967 25.3982 28.4974L28.9022 31.0835C29.5472 31.4388 30.0129 31.2548 30.1734 30.4853L32.3702 19.6304C32.6057 18.6878 32.0514 18.4064 31.4342 18.6861ZM21.7179 25.6922L29.3777 20.8922C29.7549 20.6393 29.8734 20.9214 29.7032 21.1163L23.3462 26.8276L23.0199 29.6782L21.7179 25.6922Z" fill="#F8D49E"/>
</svg>
