<svg width="50" height="50" viewBox="0 0 50 50" fill="none" xmlns="http://www.w3.org/2000/svg">
<rect x="0.25" y="0.25" width="49.5" height="49.5" stroke="#F8D49E" stroke-opacity="0.3" stroke-width="0.5"/>
<path fill-rule="evenodd" clip-rule="evenodd" d="M25.3881 24.7415C27.5451 24.7415 29.2986 23.0052 29.2986 20.8715C29.2986 18.7362 27.5451 17 25.3881 17C23.2311 17 21.4776 18.7362 21.4776 20.8715C21.4776 23.0052 23.2318 24.7415 25.3881 24.7415ZM25.3881 19.2688C25.7043 19.2721 26.0124 19.3688 26.2737 19.5469C26.535 19.725 26.7378 19.9764 26.8565 20.2695C26.9752 20.5625 27.0046 20.8842 26.9409 21.1939C26.8772 21.5036 26.7233 21.7876 26.4986 22.01C26.2738 22.2324 25.9883 22.3834 25.678 22.4439C25.3676 22.5045 25.0463 22.4718 24.7544 22.3501C24.4626 22.2284 24.2133 22.023 24.0379 21.7599C23.8625 21.4968 23.7689 21.1877 23.7688 20.8715C23.7714 20.4444 23.9434 20.0357 24.2469 19.7352C24.5505 19.4347 24.9609 19.267 25.3881 19.2688ZM26.9698 27.8998C27.7736 27.7185 28.5413 27.4036 29.2408 26.9683C29.3679 26.8899 29.4781 26.787 29.5651 26.6657C29.652 26.5444 29.714 26.407 29.7474 26.2615C29.7809 26.116 29.7851 25.9653 29.7598 25.8182C29.7345 25.6711 29.6802 25.5305 29.6001 25.4045C29.4368 25.149 29.1794 24.9683 28.8837 24.9014C28.588 24.8346 28.2778 24.8871 28.0206 25.0475C27.2295 25.5364 26.318 25.7953 25.3881 25.7953C24.4582 25.7953 23.5466 25.5364 22.7556 25.0475C22.4983 24.887 22.1882 24.8345 21.8924 24.9013C21.5967 24.9682 21.3393 25.149 21.1761 25.4045C21.096 25.5304 21.0417 25.671 21.0164 25.8181C20.991 25.9652 20.9952 26.1158 21.0285 26.2613C21.0619 26.4068 21.1238 26.5442 21.2106 26.6655C21.2975 26.7869 21.4076 26.8898 21.5346 26.9683C22.2343 27.4033 23.0019 27.7182 23.8056 27.8998L21.6193 30.0635C21.5131 30.1684 21.4288 30.2933 21.3713 30.4309C21.3137 30.5686 21.2841 30.7164 21.2841 30.8656C21.2841 31.0149 21.3137 31.1626 21.3713 31.3003C21.4288 31.438 21.5131 31.5629 21.6193 31.6678C21.8353 31.8807 22.1264 32 22.4297 32C22.733 32 23.0241 31.8807 23.2401 31.6678L25.3873 29.5407L27.5368 31.6678C27.7526 31.8804 28.0435 31.9996 28.3465 31.9996C28.6494 31.9996 28.9403 31.8804 29.1561 31.6678C29.2626 31.5631 29.3472 31.4382 29.405 31.3005C29.4627 31.1628 29.4925 31.015 29.4925 30.8656C29.4925 30.7163 29.4627 30.5684 29.405 30.4307C29.3472 30.293 29.2626 30.1682 29.1561 30.0635L26.9698 27.8998Z" fill="#F8D49E"/>
</svg>
