<svg width="22" height="22" viewBox="0 0 22 22" fill="none" xmlns="http://www.w3.org/2000/svg">
<path d="M17.0765 14.2563L17.0762 14.2561C16.4203 13.7849 15.8884 13.5983 15.4326 13.5985C14.8509 13.5987 14.2866 13.9162 13.7657 14.7244C13.4417 15.2272 12.9884 15.5456 12.3935 15.5459C12.0722 15.546 11.741 15.4533 11.4162 15.3026C9.04116 14.2012 7.32401 12.4985 6.34236 10.2424M17.0765 14.2563L15.6235 21.0462C12.1454 19.5147 9.15151 17.4795 6.71958 15.0012L6.71956 15.0011C4.23519 12.4695 2.26054 9.39731 0.853323 5.86494L0.853315 5.86492C0.397892 4.72187 0.395494 3.67128 0.784364 2.80194L0.784371 2.80192C1.18707 1.90157 2.00751 1.18705 3.22244 0.768382L3.22255 0.768345C3.64266 0.623464 4.03194 0.628704 4.40057 0.767304L4.40063 0.767325C4.47195 0.794132 4.59184 0.863258 4.75915 0.997198C4.92092 1.1267 5.10488 1.29873 5.30352 1.50631C5.7006 1.92127 6.13518 2.45602 6.54077 3.02174C6.94633 3.58739 7.31517 4.17322 7.58432 4.68769C7.86578 5.22567 7.9994 5.61425 8.00993 5.81116L8.00993 5.81124C8.05313 6.61645 7.4688 7.05103 7.0008 7.37648L7.00063 7.3766C6.53773 7.69878 6.20373 8.1019 6.09035 8.62882C5.98028 9.14037 6.09797 9.68082 6.34236 10.2424M17.0765 14.2563C17.1909 14.3384 17.3056 14.4202 17.4197 14.5015M17.0765 14.2563L17.368 13.8501C17.4817 13.9316 17.5958 14.013 17.7099 14.0943M6.34236 10.2424L6.80084 10.0429M6.34236 10.2424L6.80084 10.0429M6.80084 10.0429C6.35179 9.01103 6.49694 8.33635 7.28626 7.78698C7.73449 7.47528 8.56879 6.895 8.50922 5.78446M6.80084 10.0429C7.72977 12.1778 9.35335 13.7948 11.6265 14.849C11.9083 14.9797 12.1663 15.046 12.3933 15.0459L8.50922 5.78446M8.50922 5.78446C8.44176 4.52334 5.72199 0.729809 4.57654 0.299291C4.09156 0.116947 3.58209 0.115456 3.05954 0.295663L8.50922 5.78446ZM17.7099 14.0943L17.4196 14.5014C17.4196 14.5015 17.4197 14.5015 17.4197 14.5015M17.7099 14.0943L17.7103 14.0947C18.2601 14.4867 18.8284 14.8921 19.3627 15.3318M17.7099 14.0943L19.3627 15.3318M17.4197 14.5015C17.9718 14.8953 18.526 15.2907 19.0448 15.7177L17.4197 14.5015ZM19.3627 15.3318L19.045 15.7179C19.1514 15.8056 19.264 15.8936 19.3672 15.9742L19.3627 15.3318ZM19.3627 15.3318C19.4635 15.4148 19.5711 15.499 19.6751 15.5803L19.3627 15.3318ZM16.4293 21.2884L16.43 21.2886L16.4508 21.2934C16.5139 21.3078 16.5817 21.3234 16.6386 21.3386L16.6408 21.3386C16.6413 21.3386 16.6417 21.3386 16.6422 21.3386C17.3268 21.3379 18.1344 21.0107 18.8596 20.4453C19.5814 19.8824 20.1655 19.1265 20.4338 18.3495L20.4338 18.3494C20.6553 17.7084 20.5558 17.2834 20.3578 16.9523C20.1373 16.5835 19.7745 16.2926 19.3673 15.9743L16.4293 21.2884ZM16.4293 21.2884C16.1817 21.2319 15.8923 21.1645 15.6236 21.0462L16.4293 21.2884Z" stroke="#CBAE83"/>
</svg>
