<svg width="208" height="33" viewBox="0 0 208 33" fill="none" xmlns="http://www.w3.org/2000/svg">
<path d="M7.316 5.464H0.172V2.12H18.07V5.464H10.926V31H7.316V5.464ZM41.1986 18.916C39.3746 20.664 36.9806 21.538 34.0166 21.538H28.2026V31H24.5926V2.12H34.0166C37.006 2.12 39.4 2.98133 41.1986 4.704C43.048 6.47733 43.9726 8.846 43.9726 11.81C43.9726 14.774 43.048 17.1427 41.1986 18.916ZM28.2026 18.194H34.0166C34.5993 18.194 35.1946 18.118 35.8026 17.966C36.588 17.7887 37.2846 17.4847 37.8926 17.054C39.514 15.9647 40.3246 14.2167 40.3246 11.81C40.3246 9.40333 39.514 7.65533 37.8926 6.566C37.3353 6.186 36.6386 5.89467 35.8026 5.692C35.1946 5.54 34.5993 5.464 34.0166 5.464H28.2026V18.194ZM67.2171 31H63.3031L60.8331 24.844H48.7871L46.3171 31H42.4411L54.7911 0.979999L67.2171 31ZM54.7911 9.834L50.1171 21.5H59.5031L54.7911 9.834ZM76.0426 5.464H68.8986V2.12H86.7966V5.464H79.6526V31H76.0426V5.464ZM95.5992 5.464H88.4552V2.12H106.353V5.464H99.2092V31H95.5992V5.464ZM113.712 20.018C111.635 17.9407 110.596 15.4073 110.596 12.418C110.596 9.454 111.647 6.92067 113.75 4.818C115.853 2.71533 118.373 1.664 121.312 1.664C124.276 1.664 126.809 2.71533 128.912 4.818C131.015 6.92067 132.066 9.454 132.066 12.418C132.066 15.382 131.015 17.9153 128.912 20.018C126.809 22.1207 124.276 23.172 121.312 23.172C118.348 23.172 115.815 22.1207 113.712 20.018ZM116.182 7.25C114.865 8.64333 114.206 10.366 114.206 12.418C114.206 14.47 114.865 16.1927 116.182 17.586C117.525 19.0807 119.235 19.828 121.312 19.828C123.389 19.828 125.112 19.0807 126.48 17.586C127.797 16.1927 128.456 14.47 128.456 12.418C128.456 10.366 127.797 8.64333 126.48 7.25C125.112 5.75533 123.389 5.008 121.312 5.008C119.235 5.008 117.525 5.75533 116.182 7.25ZM130.242 27.656V31H112.382V27.656H130.242ZM155.199 18.916C153.375 20.664 150.981 21.538 148.017 21.538H142.203V31H138.593V2.12H148.017C151.006 2.12 153.4 2.98133 155.199 4.704C157.048 6.47733 157.973 8.846 157.973 11.81C157.973 14.774 157.048 17.1427 155.199 18.916ZM142.203 18.194H148.017C148.599 18.194 149.195 18.118 149.803 17.966C150.588 17.7887 151.285 17.4847 151.893 17.054C153.514 15.9647 154.325 14.2167 154.325 11.81C154.325 9.40333 153.514 7.65533 151.893 6.566C151.335 6.186 150.639 5.89467 149.803 5.692C149.195 5.54 148.599 5.464 148.017 5.464H142.203V18.194ZM184.599 1.018V31H180.989V10.784L162.825 32.026V2.082H166.435V22.26L184.599 1.018ZM188.746 30.886L193.686 20.626C190.164 19.0047 188.404 16.066 188.404 11.81C188.404 8.846 189.316 6.47733 191.14 4.704C192.989 2.98133 195.383 2.12 198.322 2.12H207.784V31H204.174V21.462H197.828L197.296 21.424L192.774 30.886H188.746ZM198.322 18.118H204.174V5.464H198.322C197.739 5.464 197.144 5.54 196.536 5.692C195.7 5.89467 195.003 6.186 194.446 6.566C192.824 7.65533 192.014 9.40333 192.014 11.81C192.014 14.2167 192.824 15.952 194.446 17.016C195.003 17.396 195.7 17.6873 196.536 17.89C197.118 18.042 197.714 18.118 198.322 18.118Z" fill="url(#paint0_linear_495_286)"/>
<defs>
<linearGradient id="paint0_linear_495_286" x1="-1.5" y1="18.5" x2="209.5" y2="18.5" gradientUnits="userSpaceOnUse">
<stop stop-color="#F8D49E"/>
<stop offset="1" stop-color="#B47B45"/>
</linearGradient>
</defs>
</svg>
