<svg width="94" height="79" viewBox="0 0 94 79" fill="none" xmlns="http://www.w3.org/2000/svg">
<path d="M39.3755 4.60938C19.8114 4.60938 3.89551 20.3758 3.89551 39.7563C3.89551 59.138 19.8114 74.9045 39.3755 74.9045C58.9409 74.9045 74.8568 59.138 74.8568 39.7563C74.8568 20.3758 58.9409 4.60938 39.3755 4.60938ZM39.3755 74.1734C20.218 74.1734 4.63218 58.7326 4.63218 39.755C4.63218 20.7774 20.218 5.33785 39.3755 5.33785C58.533 5.33785 74.1201 20.7774 74.1201 39.755C74.1201 58.7326 58.5343 74.1734 39.3755 74.1734Z" fill="white"/>
<path d="M39.2749 0.633432C28.8354 0.674618 19.0377 4.74043 11.6866 12.0831C4.33539 19.4257 0.310305 29.1636 0.351881 39.5051C0.437632 60.7994 17.9542 78.064 39.4321 78.064C39.4841 78.064 39.5386 78.064 39.5906 78.064C61.14 77.9777 78.6007 60.5394 78.5149 39.1923C78.4733 28.8508 74.3677 19.1451 66.9568 11.863C59.5458 4.58083 49.678 0.575514 39.2749 0.633432ZM39.5867 76.7859C39.5347 76.7859 39.4854 76.7859 39.4334 76.7859C18.6648 76.7859 1.72649 60.0902 1.64204 39.4986C1.60176 29.4982 5.49432 20.0808 12.6038 12.9814C19.7133 5.88076 29.1875 1.95009 39.2814 1.9089C39.3347 1.9089 39.3866 1.9089 39.4399 1.9089C49.4753 1.9089 58.9196 5.76106 66.0486 12.7678C73.2166 19.8093 77.1858 29.1958 77.2274 39.1949C77.3105 59.8393 60.4254 76.701 39.5867 76.7859Z" fill="white"/>
<path d="M61.0276 15.7058C57.9614 13.9335 53.8649 14.1793 52.0797 16.2463C52.0004 16.3377 51.9212 16.4162 51.8419 16.5024C51.9017 16.4188 51.9407 16.3223 52.0134 16.2463C48.1715 14.0789 43.7424 12.8228 39.0183 12.8228H38.9118C27.5446 12.8678 17.8951 20.0817 14.2416 30.104C12.598 30.6343 10.9207 31.1311 8.90292 31.6743L8.12207 31.884L8.50275 32.5906C8.70414 32.9665 9.07442 33.3062 9.51877 33.5237C9.70066 33.6113 9.89035 33.6859 10.0813 33.7593C10.3659 33.8674 10.6348 33.9704 10.818 34.1222C11.3533 34.5676 11.3 35.529 11.0714 36.2806C10.9986 36.5174 10.9142 36.753 10.8297 36.9885C10.5517 37.7633 10.2645 38.5651 10.3425 39.4558C10.4386 40.5858 11.0805 41.4829 11.7028 42.3517C12.2823 43.1612 12.8306 43.927 12.8137 44.7533C12.8085 45.0171 12.7448 45.3029 12.6786 45.604C12.5681 46.097 12.4434 46.6543 12.5616 47.2425C12.8306 48.581 14.0571 49.1872 15.1406 49.7226C16.0228 50.1589 16.8543 50.5695 17.0661 51.2722C17.2337 51.8231 16.9908 52.4306 16.7101 53.1346C16.5165 53.6224 16.3139 54.1269 16.2307 54.6739C16.0579 55.8052 16.462 57.0061 17.2844 57.8118C17.517 58.037 17.7807 58.2339 18.0458 58.4283C18.4199 58.7024 18.7746 58.9611 18.9435 59.288C19.2242 59.826 19.0592 60.5867 18.4148 61.7025C17.8548 62.6678 17.1584 63.8699 17.5092 65.139C17.708 65.8674 18.2017 66.3887 18.5564 66.7169L18.8799 67.0155L19.2788 66.825C20.0388 66.4595 23.157 65.1943 26.1739 63.9716C27.39 63.4787 28.5593 63.0037 29.561 62.5945C29.574 62.673 29.5727 62.7515 29.5909 62.8313C29.8378 63.9472 30.6485 64.9279 31.7061 65.3874C32.0036 65.5174 32.322 65.6062 32.6377 65.6937C33.0885 65.8172 33.5121 65.9344 33.7901 66.1802L33.7914 66.1815C34.2474 66.5843 34.367 67.3514 34.1643 68.6256C33.9915 69.7247 33.7758 71.0903 34.5606 72.1521C35.0101 72.7635 35.6584 73.0737 36.1067 73.2539L36.5159 73.4186L36.8187 73.0981C37.3942 72.4881 39.8472 70.2087 42.2184 68.0027C44.0425 66.3063 45.7692 64.7014 46.58 63.9124C56.414 60.9831 63.8301 52.5348 65.1424 42.2101C66.1116 41.6978 66.9626 41.0363 67.6473 40.2345C69.7677 37.7492 69.9561 34.0064 68.0761 31.7129C67.5577 31.0809 66.9249 30.5854 66.313 30.1066C65.5698 29.5249 64.8669 28.974 64.4408 28.2378C63.5742 26.7435 63.3208 25.1373 63.7626 23.9416C65.0293 20.509 64.0055 17.4317 61.0276 15.7058ZM21.4888 28.9084C21.494 28.9238 21.4992 28.9393 21.5044 28.9547C21.7356 29.7063 21.2601 30.588 20.7872 31.467C20.2675 32.4323 19.6581 33.8532 20.3532 35.0952C20.678 35.677 21.2042 36.0387 21.6681 36.3578C21.8903 36.5097 22.1137 36.6603 22.3086 36.8405C22.4749 36.9937 22.6113 37.1726 22.7218 37.3656C21.7499 38.2048 20.8496 38.968 19.9687 39.6926C19.9985 38.7325 19.6205 37.7646 18.9072 37.1069C18.672 36.8907 18.4109 36.7105 18.1588 36.538C17.7495 36.2562 17.3611 35.9897 17.1506 35.6113L16.5061 35.9653C16.8011 36.4917 17.2779 36.8199 17.7391 37.1365C17.9821 37.3025 18.2095 37.4609 18.407 37.641C19.0215 38.2061 19.3398 39.0684 19.2398 39.8908C19.2203 40.0504 19.1813 40.21 19.1371 40.3709C18.3407 41.0131 17.5248 41.6502 16.653 42.3092C16.4022 41.8098 16.0891 41.3323 15.7552 40.8728C15.1653 40.0607 14.6079 39.2936 14.5313 38.4171C14.4715 37.726 14.7197 37.0451 14.9808 36.3231C15.0744 36.0657 15.1679 35.8083 15.2485 35.5496C15.6811 34.148 15.459 32.9175 14.6521 32.2573C14.3286 31.9922 13.9544 31.8519 13.5932 31.7142C13.562 31.7026 13.5322 31.6884 13.5023 31.6768C16.054 30.8866 18.368 30.0616 21.4888 28.9084ZM12.7565 41.6129C12.2108 40.8497 11.6963 40.1302 11.6288 39.3464C11.5755 38.7299 11.8042 38.0902 12.0458 37.4145C12.1368 37.1597 12.229 36.9048 12.3057 36.6487C12.7565 35.1699 12.5083 33.8597 11.6456 33.1415C11.2961 32.8532 10.8986 32.7 10.5452 32.5662C10.5361 32.5623 10.527 32.5585 10.5179 32.5559C11.2013 32.3654 11.8431 32.1775 12.4694 31.9909C12.5642 32.0552 12.65 32.1312 12.7565 32.1814C12.9371 32.2689 13.1281 32.3409 13.3178 32.413C13.6348 32.5327 13.9336 32.646 14.1623 32.8326C14.9977 33.516 14.6443 34.9202 14.517 35.3346C14.4403 35.5818 14.3507 35.8289 14.261 36.0747C13.9843 36.8392 13.6972 37.6295 13.7712 38.4815C13.8648 39.5613 14.5092 40.4481 15.1315 41.3066C15.4901 41.8008 15.8046 42.2847 16.0306 42.7803C15.5278 43.1548 15.0068 43.5383 14.4481 43.9425L14.0415 44.2359C13.8895 43.2449 13.3295 42.4122 12.7565 41.6129ZM19.1436 65.4826C18.9422 65.2484 18.8149 65.027 18.7539 64.8043C18.5447 64.0463 19.0488 63.1775 19.5477 62.3139C20.0947 61.3679 20.7456 59.9637 20.0921 58.705L20.0908 58.7037C19.7842 58.1129 19.2684 57.7345 18.8149 57.4012C18.5979 57.2429 18.3797 57.0859 18.1926 56.9005C17.6586 56.3793 17.3961 55.598 17.5079 54.8644C17.5702 54.4616 17.7365 54.0446 17.9132 53.6031C18.2355 52.7961 18.6005 51.8797 18.3069 50.9041C17.934 49.6737 16.7582 49.092 15.7201 48.5784C14.7833 48.1164 13.9752 47.7161 13.8297 46.9928C13.7647 46.6672 13.8505 46.2836 13.9414 45.8795C14.0194 45.5294 14.0999 45.1677 14.1077 44.7778C14.1077 44.7404 14.0947 44.707 14.0947 44.6696L14.4079 44.9399C14.7314 45.2205 15.2004 45.4058 15.6941 45.4509C15.7565 45.4573 15.8201 45.4573 15.8838 45.4599C15.8721 45.6594 15.8747 45.8615 15.9163 46.0687C16.145 47.209 17.1519 47.7612 18.1705 48.2683C18.19 49.0765 18.2186 49.9105 18.6044 50.7008C18.928 51.3636 19.436 51.8463 19.9933 52.2697C19.8244 52.6957 19.6594 53.1333 19.5893 53.5941C19.4295 54.6392 19.8024 55.7512 20.5624 56.4964C20.7911 56.7191 21.047 56.907 21.2939 57.0884C21.6954 57.3832 22.0747 57.6599 22.2735 58.0434C22.7036 58.8697 22.1813 59.9521 21.7395 60.7141C21.177 61.6845 20.5403 62.7849 20.8586 63.9472C20.9236 64.1827 21.0288 64.4079 21.1718 64.6306C20.3247 64.9781 19.6127 65.2767 19.1436 65.4826ZM16.5867 45.4779C16.7816 45.4843 16.9674 45.4998 17.1207 45.5526C17.7664 45.7727 18.0614 46.653 18.1276 47.4252C17.3935 47.0391 16.7751 46.6144 16.6374 45.9258C16.6101 45.7945 16.6244 45.6555 16.6309 45.5178C16.6153 45.5049 16.6023 45.4895 16.5867 45.4779ZM26.1479 59.5866C25.8517 60.3988 25.5463 61.2392 25.8413 62.1144C25.9023 62.2946 25.9985 62.4593 26.1024 62.6202C25.9634 62.6768 25.8257 62.7322 25.688 62.7888C24.3653 63.3255 23.0245 63.8686 21.8669 64.3436C21.7252 64.1467 21.6213 63.9523 21.568 63.7554C21.329 62.8853 21.863 61.9651 22.3892 61.0564C22.9037 60.1671 23.5221 58.8491 22.9271 57.7075C22.649 57.1734 22.1826 56.8297 21.7304 56.5003C21.4927 56.3265 21.2705 56.1618 21.0782 55.9764C20.4832 55.3934 20.1908 54.5208 20.3156 53.7009C20.3649 53.3753 20.4806 53.0471 20.6092 52.7125C20.7118 52.782 20.8145 52.8527 20.9171 52.921C21.7512 53.4731 22.5373 53.9931 22.8218 54.7717C22.9128 55.0189 22.9569 55.3084 23.0024 55.6135C23.0778 56.1129 23.1622 56.6779 23.4844 57.1863C24.1536 58.2365 25.3424 58.4399 26.461 58.5557C26.387 58.8916 26.2778 59.2314 26.1479 59.5866ZM29.4844 61.2225C29.4844 61.2289 29.4844 61.2366 29.4844 61.2431C28.6866 61.5713 27.759 61.9484 26.7897 62.3422C26.6793 62.1981 26.5922 62.0475 26.5377 61.8853C26.3246 61.2508 26.5741 60.5648 26.8391 59.8363C26.9807 59.4489 27.1094 59.0473 27.1938 58.6355C28.0149 58.7243 28.7581 58.8581 29.1466 59.3562C29.5 59.8118 29.4935 60.4657 29.4844 61.2225ZM36.208 71.8934C35.9352 71.748 35.7377 71.5871 35.6 71.3992C35.1322 70.7647 35.2881 69.7762 35.4428 68.7929C35.613 67.7157 35.7169 66.175 34.6502 65.2291C34.1474 64.7825 33.5303 64.6126 32.9846 64.462C32.726 64.3899 32.4662 64.3217 32.2245 64.2174C31.5385 63.9188 31.011 63.2805 30.8499 62.5559C30.7628 62.1582 30.768 61.7115 30.7719 61.2366C30.7823 60.3679 30.794 59.3845 30.1652 58.5776C29.3739 57.5595 28.0656 57.4321 26.9119 57.3201C25.8699 57.2197 24.9708 57.1322 24.5732 56.5067C24.3939 56.2261 24.3367 55.8387 24.2757 55.4281C24.2224 55.0742 24.1678 54.7061 24.0327 54.338C23.604 53.1642 22.6009 52.5014 21.6304 51.8591C20.8457 51.3417 20.1051 50.8514 19.7608 50.1435C19.4892 49.5849 19.4723 48.9079 19.4555 48.1885C19.4477 47.9182 19.4412 47.6492 19.423 47.3828C19.3086 45.8422 18.6044 44.7057 17.5404 44.344C17.0999 44.1934 16.6815 44.2115 16.2749 44.1947C16.8479 43.7726 17.3805 43.3697 17.9002 42.972C17.9977 42.9939 18.0886 43.0312 18.19 43.0402C18.7058 43.0866 19.2502 43.0068 19.6815 43.1535C20.6767 43.4933 20.8521 44.8962 20.8833 45.3183C20.9028 45.568 20.9093 45.8228 20.9145 46.0764C20.934 46.8692 20.9535 47.6904 21.3212 48.442C21.785 49.3957 22.6789 49.9852 23.5416 50.5566C24.4134 51.1345 25.2384 51.6789 25.5528 52.5426C25.6516 52.8167 25.6971 53.1166 25.7438 53.4345C25.8192 53.9313 25.8945 54.4435 26.1882 54.9043C26.8508 55.9455 28.0877 56.0652 29.2843 56.1811C30.3263 56.2815 31.3098 56.3767 31.8347 57.0524C32.2479 57.5827 32.2401 58.3124 32.2323 59.0859C32.2258 59.5956 32.2193 60.1246 32.3323 60.633C32.561 61.6665 33.3094 62.5726 34.2877 62.9986C34.5826 63.1273 34.8893 63.211 35.1868 63.2933C35.6662 63.4272 36.121 63.5507 36.4458 63.839C37.1435 64.4568 37.0473 65.6551 36.9096 66.5251C36.7342 67.6294 36.5354 68.8817 37.2539 69.8547C37.3994 70.0517 37.5787 70.2241 37.7918 70.3824C37.1279 71.0054 36.5718 71.5356 36.208 71.8934ZM42.2171 66.2548C42.0625 66.1596 41.9273 66.0502 41.8169 65.9176C41.3868 65.399 41.3738 64.6679 41.3583 63.8957C41.3479 63.386 41.3375 62.8583 41.2114 62.3525C40.9503 61.3267 40.1733 60.4438 39.182 60.0474C38.8845 59.9277 38.5766 59.8543 38.2777 59.781C37.7931 59.6626 37.3345 59.5506 37.0019 59.2726L36.5276 59.8312C36.9928 60.2186 37.5579 60.3563 38.1036 60.4888C38.3895 60.5596 38.6597 60.624 38.9079 60.7244C39.6848 61.0346 40.2929 61.727 40.4969 62.5314C40.6047 62.9561 40.6138 63.4182 40.6242 63.9098C40.6398 64.7734 40.6567 65.6667 41.2478 66.3823C41.3699 66.529 41.5194 66.6474 41.674 66.7607C41.5609 66.8649 41.4505 66.9692 41.3375 67.0734C40.3007 68.0374 39.2483 69.0156 38.3401 69.8663C38.1374 69.7325 37.9711 69.5883 37.849 69.4236C37.3124 68.6951 37.4787 67.6487 37.6437 66.6126C37.8035 65.5972 37.9035 64.1492 36.9382 63.2946C36.4848 62.8931 35.9274 62.7386 35.3856 62.5893C35.1011 62.5108 34.8321 62.4374 34.5866 62.3293C33.82 61.996 33.2327 61.2855 33.0547 60.4773C32.9599 60.0487 32.9651 59.5853 32.9703 59.095C32.9807 58.2313 32.9911 57.3381 32.4207 56.6071C31.7009 55.6817 30.5095 55.5659 29.3597 55.4539C28.293 55.3509 27.2847 55.2531 26.8144 54.5143C26.6052 54.1836 26.5429 53.7678 26.4766 53.3277C26.4246 52.9879 26.3727 52.6365 26.2479 52.2942C25.8504 51.2053 24.885 50.5669 23.9522 49.9504C23.1349 49.4099 22.3632 48.9002 21.9851 48.1254C21.6876 47.514 21.6707 46.8074 21.6512 46.0584C21.6447 45.7932 21.6382 45.5281 21.62 45.2668C21.5161 43.8408 20.882 42.7931 19.9232 42.4662C19.5217 42.3285 19.1202 42.3375 18.7292 42.3349C20.8392 40.6875 22.7036 39.0954 25.2072 36.9087C25.2189 36.9216 25.2293 36.9357 25.2384 36.9473C25.7269 37.5677 25.5996 38.5613 25.4762 39.5472C25.3385 40.6296 25.2813 42.174 26.3766 43.0879C26.8911 43.5152 27.5121 43.667 28.0617 43.8022C28.3229 43.8652 28.5853 43.9283 28.8322 44.0261C29.5273 44.3041 30.0729 44.9232 30.2561 45.6452C30.3562 46.0404 30.3653 46.487 30.3744 46.9619C30.3913 47.8307 30.4107 48.814 31.0617 49.6016C31.8854 50.5952 33.1963 50.6841 34.3527 50.76C35.396 50.8308 36.2977 50.89 36.7134 51.5026C36.9018 51.778 36.9707 52.1655 37.0447 52.5747C37.1097 52.9261 37.1747 53.2903 37.3202 53.6533C37.7827 54.8129 38.8065 55.4474 39.7953 56.0588C40.5956 56.5543 41.3505 57.0215 41.7181 57.7191C42.0066 58.2674 42.0443 58.9431 42.0832 59.66C42.0988 59.9303 42.1131 60.2018 42.1417 60.4683C42.3002 62.0037 43.0369 63.1196 44.114 63.4491C44.4505 63.552 44.7818 63.5688 45.091 63.5662C44.3608 64.2586 43.3136 65.2342 42.2171 66.2548ZM57.2117 56.8156C54.4573 59.566 51.1689 61.588 47.5856 62.839L46.7722 62.4864C46.5085 62.3731 46.2162 62.3036 45.929 62.2869C45.7263 62.2727 45.5211 62.2753 45.3145 62.2843C45.0131 62.292 44.7246 62.2984 44.4959 62.2289C43.8268 62.023 43.5033 61.1169 43.4228 60.3357C43.3968 60.0899 43.3838 59.8376 43.3695 59.5879C43.324 58.7668 43.2773 57.9199 42.8589 57.1271C42.3301 56.1219 41.3881 55.5388 40.4761 54.9738C39.6276 54.4487 38.8247 53.9519 38.5155 53.1809C38.4193 52.9377 38.3674 52.6507 38.3115 52.3469C38.2219 51.8501 38.1205 51.2864 37.7801 50.787C37.0123 49.6557 35.6441 49.5656 34.4371 49.4845C33.4536 49.4176 32.5259 49.3558 32.0569 48.7895C31.6892 48.3442 31.6762 47.6904 31.6606 46.9349C31.6502 46.411 31.6398 45.8679 31.5047 45.3312C31.2228 44.2218 30.3822 43.2668 29.3116 42.8395C29.0102 42.7185 28.6892 42.6387 28.367 42.5589C27.9149 42.4482 27.4874 42.3439 27.2029 42.1071C26.7352 41.7171 26.5909 40.9539 26.7547 39.6784C26.8937 38.5742 27.0678 37.1996 26.2518 36.1609C26.0622 35.919 25.8309 35.7117 25.5425 35.5277L25.1319 35.2651L24.7668 35.5856C24.39 35.9151 24.0405 36.2188 23.691 36.5239C23.5442 36.2999 23.3805 36.0876 23.1817 35.9048C22.9426 35.6847 22.6711 35.4955 22.3996 35.3089C22.0176 35.045 21.6564 34.7979 21.4758 34.4762C21.1796 33.9459 21.3212 33.1814 21.9357 32.0423C22.4632 31.0616 23.1206 29.8415 22.7335 28.584C22.6438 28.2919 22.5022 28.0177 22.3008 27.7436L22.0124 27.351L21.5524 27.5209C19.0553 28.4463 17.0882 29.1606 15.1497 29.8054C18.8487 20.3507 28.0708 13.5937 38.9092 13.5487H39.0131C43.5618 13.5487 47.8298 14.7469 51.5392 16.8178C48.8796 19.4601 46.2512 18.8616 43.2422 18.1769C40.289 17.5051 36.9408 16.7457 33.629 19.6313C31.5658 21.428 30.7615 23.9674 30.4484 25.7795C29.7845 29.6265 30.7953 34.4942 34.584 36.094C35.1777 36.3437 35.8299 36.5187 36.4588 36.6873C37.9152 37.0773 39.1729 37.4132 39.5211 38.5021C39.7537 39.2228 39.46 40.0465 39.1495 40.9192C39.0625 41.165 38.9754 41.4095 38.9001 41.6515C38.1478 44.0544 38.5623 46.6015 39.9836 48.2953C41.014 49.5244 42.5445 50.1872 44.0282 50.1872C44.926 50.1872 45.8069 49.9453 46.5488 49.4395C47.6259 48.7033 48.2508 47.5938 48.8523 46.523C49.3305 45.6748 49.7813 44.8717 50.4296 44.2861C52.0953 42.7802 54.5275 43.0106 57.1052 43.259C57.9445 43.3388 58.8124 43.4225 59.6478 43.4392C61.346 43.465 62.9427 43.1625 64.3433 42.5769C63.5742 47.9401 61.1303 52.9016 57.2117 56.8156ZM65.5101 31.117C66.0908 31.5726 66.6417 32.0024 67.0692 32.525C68.5438 34.323 68.358 37.4094 66.6573 39.403C65.1359 41.183 62.5062 42.2178 59.679 42.156C58.8943 42.1406 58.0887 42.0634 57.2364 41.981C54.4937 41.721 51.6548 41.4481 49.5604 43.3401C48.7562 44.066 48.2313 44.9991 47.7233 45.9014C47.1685 46.8872 46.6449 47.8165 45.8173 48.3828C44.4128 49.3429 42.2041 48.9259 40.988 47.478C39.8615 46.1356 39.5315 44.0004 40.146 42.0376C40.2175 41.8098 40.2981 41.582 40.3812 41.3516C40.7333 40.3644 41.1309 39.2473 40.7658 38.1147C40.2006 36.3578 38.3973 35.8752 36.8031 35.4492C36.1885 35.2844 35.6091 35.1287 35.0985 34.9138C32.0972 33.6486 31.1344 29.4708 31.7347 25.9996C32.0114 24.3921 32.7156 22.15 34.4917 20.6004C37.3059 18.1486 40.0499 18.7715 42.9576 19.4356C46.2746 20.1886 49.7099 20.9724 53.0671 17.0842C54.4469 15.4857 57.8588 15.3647 60.3715 16.8178C61.7981 17.6454 63.9769 19.6107 62.5426 23.5002C61.9722 25.0472 62.2593 27.0589 63.3156 28.8801C63.8652 29.8299 64.7019 30.4837 65.5101 31.117Z" fill="white"/>
<path d="M46.5668 22.2573C42.6327 22.2573 39.4326 25.4286 39.4326 29.3258C39.4326 33.223 42.6327 36.3931 46.5668 36.3931C50.501 36.3931 53.701 33.223 53.701 29.3258C53.701 25.4286 50.501 22.2573 46.5668 22.2573ZM46.5668 35.6646C43.038 35.6646 40.168 32.8215 40.168 29.3258C40.168 25.8302 43.038 22.9858 46.5668 22.9858C50.0956 22.9858 52.9656 25.8302 52.9656 29.3258C52.9656 32.8215 50.0943 35.6646 46.5668 35.6646Z" fill="white"/>
<path d="M43.1753 26.2496C42.3191 27.1698 41.8761 28.3655 41.9268 29.6165L42.6621 29.5869C42.6193 28.5302 42.9934 27.5212 43.7171 26.7451C44.4395 25.9677 45.4243 25.5185 46.4923 25.476L46.4625 24.7476C45.1996 24.7965 44.0316 25.3306 43.1753 26.2496Z" fill="white"/>
<path d="M34.0968 53.3254C33.4043 52.3048 32.1635 52.2224 30.963 52.1413C29.9184 52.0718 28.9323 52.0062 28.3866 51.3472C27.9578 50.8298 27.9448 50.0988 27.9293 49.3252C27.9189 48.8156 27.9085 48.2879 27.7811 47.7821C27.5213 46.7563 26.7443 45.8747 25.7543 45.4782C25.4568 45.3585 25.1463 45.2839 24.8474 45.2105C24.3628 45.0921 23.9055 44.9802 23.5729 44.7021L23.0986 45.2607C23.5638 45.6494 24.1276 45.7858 24.672 45.9197C24.9592 45.9892 25.2307 46.0548 25.4789 46.1552C26.2558 46.4654 26.8639 47.1578 27.0679 47.961C27.1757 48.3857 27.1848 48.849 27.1952 49.3394C27.2108 50.2043 27.2277 51.0962 27.8188 51.8106C28.5659 52.7128 29.7599 52.7939 30.9149 52.8711C31.9842 52.9432 32.9963 53.0088 33.4862 53.7334C33.7057 54.0565 33.7811 54.4696 33.8603 54.9072C33.9214 55.247 33.9851 55.5971 34.1202 55.9356L34.8049 55.6666C34.6958 55.3963 34.6425 55.0964 34.584 54.7785C34.4957 54.2856 34.4021 53.7759 34.0968 53.3254Z" fill="white"/>
<path d="M92.9902 10.4242C92.9733 9.68667 92.8213 9.34817 92.4523 8.69564L92.3575 8.52832L90.7217 8.55535L90.875 24.6036L90.1254 24.6191L89.9734 8.56822L87.649 8.60683L87.8023 24.7027C87.5438 24.704 87.1956 24.7105 86.937 24.7169L86.7837 8.62099L84.4593 8.6596L84.6113 24.7105L83.8994 24.7195L83.746 8.67118L82.1103 8.6995L82.0193 8.87068C81.9505 9.00067 81.8933 9.0972 81.8491 9.17571C81.64 9.53737 81.5984 9.65964 81.5958 10.2388C81.5685 16.6548 81.6218 22.5083 81.7595 28.1353L81.7673 28.6785C81.7881 30.5395 81.8569 32.1149 82.4871 32.5293C85.4156 34.4483 85.2051 37.3957 84.9634 40.8077C84.9206 41.4139 84.8764 42.0239 84.853 42.6301C84.6204 48.3871 84.4567 54.2432 84.2982 59.9076C84.2437 61.8575 84.1891 63.8073 84.1319 65.7572C84.0683 67.9452 84.089 70.4048 85.1492 71.8875C85.4455 72.3019 85.8106 72.6172 86.2419 72.8296C86.6707 73.042 87.1644 73.1539 87.7205 73.1629L87.8088 73.1591L87.8946 73.1578L87.9881 73.1591C89.099 73.1025 89.9552 72.6443 90.5307 71.7961C91.5623 70.2774 91.5351 67.8178 91.4298 65.6337C91.3363 63.7018 91.2453 61.7687 91.1544 59.8368C90.8867 54.166 90.6113 48.3009 90.2696 42.5388C90.2332 41.9338 90.1786 41.3264 90.1241 40.7214C89.8162 37.3185 89.5498 34.3801 92.4406 32.362C93.1033 31.8987 93.1643 30.2847 93.1695 28.5292L93.1708 28.3232C93.1968 22.7027 93.1383 16.8478 92.9902 10.4242ZM92.5485 28.3155L92.5472 28.524C92.5446 29.3001 92.5368 31.362 92.1496 31.6335C88.8807 33.9142 89.199 37.4253 89.5056 40.8193C89.5602 41.4126 89.6135 42.0085 89.6485 42.6031C89.9915 48.3588 90.267 54.2201 90.5333 59.8883C90.6243 61.8214 90.7152 63.7546 90.8088 65.6864C90.9062 67.7045 90.9387 69.9646 90.0682 71.2465C89.6018 71.9312 88.9132 72.289 87.9608 72.3367L87.8426 72.3341L87.7231 72.3405C86.7694 72.3225 86.0743 71.9892 85.5962 71.3199C84.701 70.0676 84.6906 67.8075 84.7491 65.7868C84.8062 63.8369 84.8608 61.8871 84.9154 59.9359C85.0739 54.2754 85.2376 48.4232 85.4689 42.6726C85.4935 42.078 85.5351 41.4795 85.578 40.8836C85.8197 37.4806 86.0704 33.9605 82.7599 31.7906C82.4182 31.5666 82.3948 29.4597 82.387 28.6656L82.3779 28.1083C82.2415 22.4916 82.1882 16.6484 82.2155 10.2427C82.2168 9.88874 82.2168 9.88874 82.3403 9.67637C82.3675 9.63004 82.3974 9.57856 82.4312 9.51678L83.1367 9.5052L83.29 25.5509L85.2415 25.5265L85.0882 9.47173L86.1743 9.45371L86.329 25.5741L86.6525 25.5509C86.8305 25.538 87.9205 25.5187 88.1102 25.5265L88.4324 25.538L88.2752 9.41896L89.3614 9.40094L89.5147 25.4544L91.5026 25.4132L91.3493 9.36619L92.0509 9.35461C92.3016 9.81151 92.3614 9.99685 92.3718 10.4486C92.5199 16.8633 92.5784 22.7078 92.5485 28.3155Z" fill="white"/>
<path d="M85.8096 59.8635L86.428 59.8879L86.519 56.0306L85.9005 56.0049L85.8096 59.8635Z" fill="white"/>
<path d="M86 54.4952L86.6184 54.521L86.8965 42.6273L86.278 42.6016L86 54.4952Z" fill="white"/>
</svg>
