<svg width="22" height="19" viewBox="0 0 22 19" fill="none" xmlns="http://www.w3.org/2000/svg">
<path d="M18.3406 8.80572C18.007 8.41218 17.4885 8.06212 16.796 7.76146V5.00646C16.796 2.2459 14.1954 0 10.9987 0C7.80226 0 5.20179 2.2459 5.20179 5.00643V7.76139C4.50926 8.06209 3.99076 8.41214 3.65719 8.80568C3.60331 8.86929 3.57422 8.94607 3.57422 9.02489V18.6289C3.57422 18.8339 3.76663 19 4.00391 19H9.13025C9.25653 19 9.37642 18.9519 9.4581 18.8687C9.5397 18.7854 9.57485 18.6753 9.55405 18.5677C9.51826 18.3824 9.32786 18.2526 9.11783 18.2578H4.43359V9.15325C4.94312 8.63298 5.73602 8.32549 6.46494 8.10636C7.32561 7.84759 8.23684 7.72298 9.14744 7.72298H12.8503C13.7609 7.72298 14.6722 7.84759 15.5329 8.10636C16.2619 8.32556 17.0546 8.63294 17.5642 9.15325V18.2578H12.9401C12.7028 18.2578 12.5104 18.424 12.5104 18.6289C12.5104 18.8339 12.7028 19 12.9401 19H17.9938C18.2311 19 18.4235 18.8339 18.4235 18.6289V9.02489C18.4235 8.94607 18.3944 8.86929 18.3406 8.80572ZM6.06116 5.00643C6.06116 2.6551 8.27616 0.742188 10.9987 0.742188C13.7215 0.742188 15.9367 2.6551 15.9367 5.00643V7.44243C15.4827 7.29949 15.0147 7.18972 14.5397 7.11353V5.00643C14.5397 3.32014 12.9512 1.94824 10.9987 1.94824C9.04637 1.94824 7.45808 3.32014 7.45808 5.00643V7.11353C6.98314 7.18968 6.515 7.29938 6.06116 7.4424V5.00643ZM9.14744 6.98079C8.86775 6.98079 8.59103 6.99167 8.31745 7.01245V5.00643C8.31745 3.72938 9.52028 2.69043 10.9987 2.69043C12.4773 2.69043 13.6803 3.72938 13.6803 5.00643V7.01245C13.4067 6.99167 13.13 6.98079 12.8503 6.98079H9.14744Z" fill="#D9D9D9" fill-opacity="0.7"/>
<path d="M9.10202 15.6082C9.18345 15.6986 9.30861 15.7515 9.44126 15.7515H12.6011C12.7349 15.7515 12.8611 15.6977 12.9424 15.6059C13.0236 15.5142 13.0508 15.395 13.0159 15.2834L12.3765 13.2428C12.8325 12.9014 13.097 12.408 13.097 11.8763C13.097 10.8775 12.1562 10.0649 10.9997 10.0649C9.84323 10.0649 8.90234 10.8775 8.90234 11.8763C8.90234 12.4094 9.16823 12.9041 9.62663 13.2455L9.02476 15.2889C8.99211 15.3999 9.02059 15.5177 9.10202 15.6082ZM10.9997 10.8071C11.6823 10.8071 12.2376 11.2867 12.2376 11.8763C12.2376 12.2462 12.0205 12.5848 11.6568 12.7821C11.4968 12.8689 11.4213 13.0358 11.4707 13.1933L12.0397 15.0093H9.99392L10.5304 13.1879C10.5764 13.0318 10.5005 12.8679 10.3426 12.7822C9.97888 12.5848 9.76172 12.2462 9.76172 11.8763C9.76172 11.2867 10.3171 10.8071 10.9997 10.8071Z" fill="#D9D9D9" fill-opacity="0.7"/>
<path d="M11.4359 18.4873C11.3664 18.3409 11.1899 18.2475 11.0075 18.2593C10.828 18.2708 10.6735 18.3807 10.6252 18.5302C10.5232 18.8466 10.9341 19.1142 11.2598 18.9471C11.4403 18.8545 11.5165 18.6544 11.4359 18.4873Z" fill="#D9D9D9" fill-opacity="0.7"/>
</svg>
