<svg width="160" height="83" viewBox="0 0 160 83" fill="none" xmlns="http://www.w3.org/2000/svg">
<path d="M95.1413 114.538V65.7505C95.6759 55.9577 99.4819 46.6276 105.95 39.2551L140.589 3.75284C146.518 -2.32684 149.633 -0.562985 147.532 7.50572L140.401 35.1645C139.764 36.9434 139.585 38.8541 139.88 40.7205C140.175 42.587 140.935 44.3491 142.09 45.8445C143.246 47.3399 144.759 48.5205 146.49 49.2774C148.221 50.0344 150.115 50.3434 151.998 50.176H162.506C166.603 50.186 170.53 51.8182 173.428 54.7157C176.325 57.6132 177.958 61.5402 177.968 65.6379V114.425C177.958 118.523 176.325 122.45 173.428 125.348C170.53 128.245 166.603 129.877 162.506 129.887H110.603C106.525 129.878 102.615 128.261 99.7204 125.388C96.8261 122.514 95.1808 118.616 95.1413 114.538ZM17.5316 130H69.3965C73.4942 129.99 77.4213 128.358 80.3188 125.46C83.2163 122.563 84.8485 118.636 84.8584 114.538V65.7505C84.8485 61.6528 83.2163 57.7258 80.3188 54.8283C77.4213 51.9307 73.4942 50.2985 69.3965 50.2886H58.8885C57.0063 50.456 55.1122 50.147 53.3808 49.39C51.6494 48.633 50.1364 47.4524 48.9813 45.9571C47.8261 44.4617 47.0658 42.6996 46.7706 40.8331C46.4754 38.9667 46.6547 37.056 47.292 35.2771L54.6102 7.50572C56.7118 -0.7131 53.5969 -2.47696 47.6673 3.75284L12.8781 39.105C6.41031 46.4775 2.60429 55.8076 2.06975 65.6004V114.388C2.05491 116.43 2.44362 118.454 3.21354 120.345C3.98347 122.236 5.11944 123.957 6.55619 125.407C7.99295 126.858 9.70218 128.01 11.5857 128.799C13.4692 129.587 15.4899 129.995 17.5316 130Z" fill="black" fill-opacity="0.2"/>
</svg>
