<svg width="50" height="50" viewBox="0 0 50 50" fill="none" xmlns="http://www.w3.org/2000/svg">
<rect x="0.25" y="0.25" width="49.5" height="49.5" stroke="#F8D49E" stroke-opacity="0.3" stroke-width="0.5"/>
<path fill-rule="evenodd" clip-rule="evenodd" d="M24.7644 29.1986H25.661C25.661 29.1986 25.9317 29.1686 26.0702 29.0193C26.1977 28.8828 26.1934 28.6263 26.1934 28.6263C26.1934 28.6263 26.1759 27.4241 26.7342 27.2463C27.2847 27.0723 27.9916 28.4088 28.7407 28.9226C29.3073 29.3111 29.7378 29.2263 29.7378 29.2263L31.7412 29.1986C31.7412 29.1986 32.7891 29.1333 32.2922 28.3106C32.2514 28.2431 32.0027 27.7016 30.8025 26.5878C29.5463 25.4231 29.715 25.6113 31.2278 23.5961C32.1493 22.3683 32.5178 21.6198 32.4026 21.2988C32.2929 20.9928 31.6151 21.0738 31.6151 21.0738L29.3595 21.0873C29.2594 21.0756 29.1581 21.0936 29.0682 21.1391C28.9827 21.2016 28.9142 21.2846 28.8693 21.3806C28.6356 21.9864 28.3571 22.5741 28.0361 23.1386C27.0318 24.8426 26.63 24.9326 26.4659 24.8268C26.0839 24.5801 26.1794 23.8361 26.1794 23.3073C26.1794 21.6551 26.4301 20.9666 25.6911 20.7888C25.446 20.7296 25.2654 20.6906 24.6383 20.6838C23.8335 20.6756 23.1523 20.6861 22.7667 20.8751C22.5101 21.0011 22.312 21.2808 22.4327 21.2966C22.5818 21.3168 22.9193 21.3881 23.0983 21.6311C23.3296 21.9453 23.3214 22.6511 23.3214 22.6511C23.3214 22.6511 23.4543 24.5951 23.0112 24.8366C22.7073 25.0023 22.2902 24.6641 21.3946 23.1183C21.0906 22.5802 20.8217 22.0231 20.5895 21.4503C20.5481 21.3531 20.4844 21.267 20.4036 21.1991C20.2986 21.1298 20.1808 21.0823 20.0571 21.0596L17.9136 21.0738C17.9136 21.0738 17.5919 21.0828 17.4738 21.2223C17.3688 21.3468 17.4654 21.6041 17.4654 21.6041C17.4654 21.6041 19.1433 25.5273 21.0435 27.5043C22.7861 29.3171 24.7644 29.1986 24.7644 29.1986Z" fill="#F8D49E"/>
</svg>
