<svg width="22" height="22" viewBox="0 0 22 22" fill="none" xmlns="http://www.w3.org/2000/svg">
<g clip-path="url(#clip0_495_573)">
<path d="M11.1875 20.5906V21.1282L11.7237 21.0893C16.7377 20.7254 20.7254 16.7377 21.0893 11.7237L21.1282 11.1875H20.5906H19.0625V10.8125H20.5906H21.1282L21.0893 10.2763C20.7254 5.26227 16.7377 1.27455 11.7237 0.910686L11.1875 0.871775V1.40937V2.9375H10.8125V1.40937V0.871775L10.2763 0.910686C5.26227 1.27455 1.27455 5.26227 0.910686 10.2763L0.871775 10.8125H1.40937H2.9375V11.1875H1.40937H0.871775L0.910686 11.7237C1.27455 16.7377 5.26227 20.7254 10.2763 21.0893L10.8125 21.1282V20.5906V19.0625H11.1875V20.5906ZM0.5 11C0.5 5.20101 5.20101 0.5 11 0.5C16.799 0.5 21.5 5.20101 21.5 11C21.5 16.799 16.799 21.5 11 21.5C5.20101 21.5 0.5 16.799 0.5 11Z" stroke="#CBAE83"/>
<path d="M11.6875 10.7181V6.1875H10.3125V11C10.3114 11.1827 10.3832 11.3584 10.5119 11.4881L13.9494 14.9256L14.9188 13.9563L11.6875 10.7181Z" fill="#CBAE83"/>
</g>
<defs>
<clipPath id="clip0_495_573">
<rect width="22" height="22" fill="white"/>
</clipPath>
</defs>
</svg>
