<svg width="165" height="165" viewBox="0 0 165 165" fill="none" xmlns="http://www.w3.org/2000/svg">
<rect x="8.79448" y="8.79547" width="148.409" height="148.409" rx="74.2045" fill="#141414"/>
<rect x="8.79448" y="8.79547" width="148.409" height="148.409" rx="74.2045" stroke="#262626" stroke-width="1.59091"/>
<rect x="49.271" y="49.7955" width="67.4552" height="66.4091" rx="33.2045" fill="#1A1A1A" stroke="#262626" stroke-width="1.59091"/>
<path d="M76.124 90.6875L89.874 76.3125M89.874 76.3125L79.5615 76.3125M89.874 76.3125V87.0938" stroke="#F8D49E" stroke-width="2" stroke-linecap="round" stroke-linejoin="round"/>
<path d="M29.1293 88.3073C29.7975 88.236 30.3611 88.4152 30.8199 88.845C31.2788 89.2747 31.5984 89.8507 31.7787 90.573L31.8204 90.5686C31.8162 89.6491 31.9971 88.9259 32.3633 88.3987C32.7191 87.8633 33.2265 87.5604 33.8855 87.4901C34.4609 87.4287 34.9928 87.5315 35.4812 87.7985C35.9603 88.0665 36.3584 88.4981 36.6753 89.0931C36.9922 89.6882 37.1997 90.4451 37.2977 91.3639C37.3779 92.1157 37.4028 92.7888 37.3724 93.3834C37.341 93.9687 37.2599 94.4842 37.1291 94.9299L35.3612 95.1186C35.4697 94.816 35.5557 94.4783 35.6191 94.1055C35.6733 93.7336 35.7084 93.3591 35.7245 92.982C35.7313 92.6058 35.7179 92.2599 35.6842 91.9444C35.5901 91.0627 35.397 90.4404 35.1049 90.0773C34.8024 89.706 34.4192 89.5451 33.9551 89.5946C33.4818 89.6451 33.1691 89.9694 33.0171 90.5676C32.8557 91.1668 32.8271 91.9536 32.931 92.928L33.0306 93.8607L31.3879 94.036L31.2988 93.2008C31.2146 92.4119 31.0982 91.8048 30.9496 91.3795C30.8009 90.9542 30.6198 90.6638 30.4061 90.5083C30.1923 90.3527 29.9509 90.2893 29.6818 90.318C29.3384 90.3547 29.0856 90.5365 28.9234 90.8636C28.7509 91.1824 28.6968 91.6434 28.7612 92.2466C28.8157 92.757 28.9414 93.2317 29.1384 93.6706C29.3344 94.1002 29.5739 94.4971 29.8568 94.8611L28.5488 95.9299C28.2894 95.6103 28.0605 95.2687 27.8622 94.905C27.6535 94.533 27.4827 94.1195 27.3497 93.6644C27.2073 93.2102 27.106 92.7001 27.0456 92.134C26.9654 91.3823 27.0038 90.7305 27.1608 90.1787C27.3178 89.627 27.567 89.1921 27.9086 88.874C28.2398 88.5477 28.6467 88.3588 29.1293 88.3073Z" fill="white"/>
<path d="M27.6335 74.9484C27.7602 73.9295 28.0791 73.1791 28.5905 72.6972C29.0937 72.2048 29.7992 72.0151 30.7069 72.1279L35.764 72.7564L35.5844 74.2013L34.5062 74.4764L34.4993 74.532C34.7414 74.7784 34.9361 75.0283 35.0833 75.2817C35.2316 75.5259 35.3244 75.8008 35.3617 76.1064C35.4094 76.4039 35.4067 76.7656 35.3538 77.1917C35.2985 77.6363 35.1651 78.0288 34.9535 78.3693C34.7338 78.6994 34.4353 78.9444 34.058 79.1045C33.6714 79.2633 33.2049 79.3088 32.6585 79.2409C31.8527 79.1407 31.295 78.7846 30.9855 78.1724C30.6667 77.5591 30.559 76.6851 30.6624 75.5505L30.7847 74.2255L30.4513 74.1841C30.053 74.1346 29.748 74.2048 29.5363 74.3948C29.3258 74.5756 29.1975 74.8512 29.1514 75.2217C29.1054 75.5921 29.116 75.9603 29.1834 76.326C29.2416 76.6907 29.3275 77.0587 29.4412 77.4303L27.9534 77.9366C27.791 77.5026 27.6801 77.0327 27.6207 76.5268C27.5625 76.0117 27.5668 75.4856 27.6335 74.9484ZM31.9211 75.185C31.8567 75.8542 31.9196 76.3322 32.1096 76.6192C32.2997 76.9062 32.5753 77.0721 32.9365 77.117C33.2514 77.1561 33.4899 77.0917 33.6518 76.9237C33.8045 76.7546 33.8993 76.5218 33.9361 76.2255C33.9914 75.7809 33.9083 75.3896 33.687 75.0518C33.4564 74.7127 33.1003 74.5133 32.6186 74.4534L31.9934 74.3757L31.9211 75.185Z" fill="white"/>
<path d="M34.4636 62.191C33.409 61.787 32.5658 61.314 31.9338 60.7721C31.2932 60.2268 30.8635 59.5874 30.6447 58.854C30.4173 58.1171 30.4004 57.2611 30.5941 56.2859C30.6927 55.7939 30.8059 55.3026 30.9339 54.8119C31.0566 54.3092 31.1842 53.7934 31.3169 53.2645L33.1016 53.6933C33.0442 53.9213 32.9829 54.1726 32.9176 54.4474C32.8436 54.7189 32.7723 54.9964 32.7036 55.28C32.6296 55.5515 32.5633 55.8159 32.5046 56.0733C32.446 56.3307 32.3914 56.5646 32.3407 56.7751C32.2694 57.1176 32.235 57.4293 32.2374 57.71C32.2311 57.9875 32.279 58.2407 32.3811 58.4697C32.4833 58.6988 32.6598 58.9163 32.9107 59.1224C33.1562 59.3164 33.4962 59.5116 33.9307 59.708L33.9657 59.6165C33.8402 59.4485 33.7297 59.2412 33.6342 58.9948C33.5421 58.7396 33.4928 58.4508 33.4863 58.1285C33.4799 57.8062 33.5451 57.4664 33.682 57.1091C33.899 56.5426 34.2054 56.0952 34.601 55.767C34.9965 55.4388 35.4687 55.2499 36.0175 55.2003C36.5662 55.1506 37.1848 55.2577 37.8734 55.5215C38.6839 55.832 39.3026 56.239 39.7295 56.7423C40.1563 57.2457 40.409 57.8122 40.4876 58.442C40.5574 59.0685 40.4604 59.726 40.1966 60.4145C39.9963 60.9374 39.7184 61.3757 39.3631 61.7293C39.0077 62.0829 38.5842 62.3404 38.0926 62.5019C37.601 62.6634 37.0489 62.7217 36.4363 62.677C35.8272 62.6235 35.1696 62.4615 34.4636 62.191ZM38.6598 59.6908C38.7667 59.4119 38.7975 59.1488 38.7523 58.9016C38.7104 58.6457 38.5717 58.4077 38.3362 58.1875C38.1041 57.9587 37.7527 57.7541 37.282 57.5738C36.7155 57.3567 36.2299 57.2806 35.8253 57.3455C35.4152 57.3983 35.1217 57.6557 34.9448 58.1176C34.8379 58.3965 34.8075 58.6847 34.8534 58.9821C34.894 59.2675 34.9697 59.5264 35.0806 59.7588C35.1828 59.9878 35.2832 60.1562 35.3818 60.264C35.7217 60.3942 36.0629 60.495 36.4054 60.5662C36.7392 60.6341 37.0559 60.6555 37.3554 60.6303C37.6549 60.6051 37.9171 60.5207 38.1421 60.377C38.3704 60.2246 38.543 59.9958 38.6598 59.6908Z" fill="white"/>
<path d="M44.4014 41.423C45.012 40.8193 45.7427 40.5694 46.5935 40.6733C47.4377 40.7706 48.3158 41.2805 49.2279 42.2031C49.8381 42.8204 50.2636 43.43 50.5043 44.032C50.7385 44.6273 50.8046 45.1854 50.7026 45.7062C50.6006 46.227 50.3439 46.6908 49.9323 47.0976C49.6735 47.3535 49.415 47.5434 49.1569 47.6673C48.9054 47.7847 48.6608 47.8559 48.4231 47.8809C48.1854 47.9059 47.9576 47.9079 47.74 47.8869L47.6603 47.9656C47.8115 48.0655 47.9627 48.1785 48.1138 48.3048C48.2583 48.4244 48.3961 48.5506 48.5274 48.6834L50.6927 50.8737L49.2092 52.3403L41.4731 44.5147L42.6778 43.3237L43.5857 43.8239L43.6554 43.755C43.6106 43.5106 43.5988 43.2597 43.6201 43.0025C43.6348 42.7385 43.7023 42.4749 43.8226 42.2116C43.9496 41.9418 44.1425 41.6789 44.4014 41.423ZM45.0947 43.0802C44.8358 43.3361 44.6826 43.5926 44.6349 43.8498C44.5872 44.1069 44.6351 44.381 44.7787 44.6723C44.9223 44.9503 45.1515 45.2552 45.4664 45.587L45.6239 45.7463C45.9716 46.0981 46.3001 46.3639 46.6092 46.5439C46.9118 46.7172 47.2051 46.7882 47.4891 46.7569C47.7731 46.7255 48.0511 46.5753 48.3232 46.3063C48.5489 46.0832 48.6724 45.8364 48.6938 45.5659C48.7151 45.2955 48.6409 45.0013 48.4712 44.6836C48.3014 44.3658 48.0426 44.031 47.6949 43.6793C47.1699 43.1483 46.6933 42.832 46.2649 42.7306C45.8365 42.6159 45.4465 42.7325 45.0947 43.0802Z" fill="white"/>
<path d="M63.3563 32.0653C63.7672 32.5491 64.0652 33.0368 64.2502 33.5287C64.4424 34.0144 64.5258 34.4947 64.5004 34.9693C64.4761 35.4309 64.347 35.8772 64.1132 36.3085C63.8734 36.7326 63.533 37.1319 63.092 37.5066C62.6865 37.851 62.2551 38.1072 61.7978 38.2752C61.3415 38.4301 60.8801 38.4852 60.4136 38.4406C59.9411 38.3888 59.4736 38.2349 59.0111 37.9787C58.5557 37.7165 58.1226 37.3435 57.7117 36.8598C57.1618 36.2125 56.8134 35.5716 56.6665 34.9372C56.5134 34.2957 56.5506 33.6763 56.7781 33.079C57.0055 32.4817 57.4109 31.9354 57.9942 31.4399C58.5419 30.9747 59.1253 30.6812 59.7444 30.5594C60.3635 30.4377 60.9843 30.4982 61.6068 30.7409C62.2233 30.9765 62.8065 31.418 63.3563 32.0653ZM59.3336 35.4822C59.6599 35.8663 59.9739 36.1568 60.2757 36.3535C60.5786 36.5371 60.8764 36.6209 61.169 36.605C61.4556 36.582 61.7412 36.4497 62.0257 36.208C62.3103 35.9663 62.4835 35.7089 62.5455 35.4359C62.6085 35.1496 62.5704 34.8453 62.4311 34.5227C62.2929 34.187 62.0607 33.8271 61.7344 33.4429C61.4081 33.0588 61.0936 32.775 60.7907 32.5914C60.4949 32.4017 60.2037 32.3184 59.9171 32.3414C59.6305 32.3645 59.345 32.4968 59.0604 32.7385C58.6407 33.095 58.4587 33.5006 58.5144 33.9554C58.5711 34.3971 58.8442 34.906 59.3336 35.4822Z" fill="white"/>
<path d="M75.266 27.0169L75.4029 29.9537L78.3118 29.818L78.1748 26.8812L80.2586 26.7841L80.6146 34.4198L78.5309 34.5169L78.3842 31.3704L75.4753 31.506L75.622 34.6526L73.5383 34.7497L73.1823 27.114L75.266 27.0169Z" fill="white"/>
<path d="M93.0407 31.0134C92.9955 31.1655 92.9308 31.3507 92.8464 31.5691C92.771 31.7901 92.6898 32.0142 92.6028 32.2415C92.5248 32.4715 92.4502 32.6733 92.3791 32.8469C92.3081 33.0205 92.2575 33.1418 92.2272 33.2107L97.1362 29.0755L99.5385 29.7893L97.3614 37.1167L95.4289 36.5425L96.2981 33.6169C96.3699 33.3754 96.4573 33.1141 96.5602 32.8331C96.6658 32.5432 96.7648 32.2756 96.8571 32.0304C96.9611 31.7789 97.0374 31.5874 97.0862 31.4559L92.1947 35.5816L89.7924 34.8679L91.9695 27.5405L93.902 28.1146L93.0407 31.0134Z" fill="white"/>
<path d="M114.403 36.1141C115.097 36.6199 115.461 37.3011 115.495 38.1575C115.534 39.0064 115.172 39.9549 114.408 41.0032C113.896 41.7046 113.363 42.2224 112.807 42.5566C112.257 42.8833 111.717 43.0381 111.187 43.021C110.656 43.0039 110.157 42.8249 109.69 42.484C109.396 42.2695 109.167 42.0449 109.003 41.81C108.847 41.5806 108.737 41.3506 108.674 41.12C108.611 40.8893 108.573 40.6649 108.559 40.4467L108.468 40.3807C108.394 40.546 108.307 40.7133 108.206 40.8827C108.111 41.0445 108.009 41.2009 107.899 41.3517L106.084 43.8405L104.399 42.6115L110.882 33.7199L112.25 34.7178L111.902 35.6942L111.982 35.752C112.216 35.6685 112.461 35.6167 112.719 35.5964C112.982 35.5686 113.253 35.5929 113.532 35.6694C113.819 35.7514 114.109 35.8996 114.403 36.1141ZM112.879 37.0644C112.585 36.8499 112.307 36.7398 112.045 36.734C111.784 36.7282 111.521 36.8195 111.257 37.0079C111.005 37.1942 110.741 37.4694 110.464 37.8335L110.332 38.0145C110.041 38.4142 109.831 38.7811 109.703 39.1151C109.58 39.4416 109.557 39.7425 109.634 40.0177C109.71 40.293 109.903 40.5433 110.213 40.7688C110.469 40.9557 110.732 41.038 111.003 41.0157C111.273 40.9934 111.552 40.8729 111.838 40.6544C112.124 40.4358 112.413 40.1267 112.705 39.727C113.145 39.1236 113.38 38.6024 113.412 38.1633C113.456 37.7221 113.278 37.3558 112.879 37.0644Z" fill="white"/>
<path d="M126.455 53.5591C125.987 53.9871 125.51 54.3025 125.025 54.5052C124.547 54.7147 124.07 54.8154 123.594 54.8071C123.132 54.7994 122.682 54.6865 122.242 54.4684C121.81 54.244 121.398 53.9182 121.008 53.4909C120.649 53.0981 120.378 52.6762 120.193 52.2253C120.022 51.7749 119.95 51.3158 119.978 50.848C120.013 50.3739 120.15 49.9011 120.389 49.4297C120.635 48.9652 120.992 48.5189 121.461 48.0909C122.088 47.5181 122.716 47.1468 123.344 46.977C123.98 46.801 124.6 46.8159 125.205 47.0216C125.81 47.2274 126.371 47.6128 126.887 48.1779C127.372 48.7085 127.686 49.281 127.83 49.8953C127.974 50.5096 127.936 51.1322 127.716 51.7631C127.503 52.3876 127.082 52.9863 126.455 53.5591ZM122.896 49.6621C122.524 50.002 122.245 50.3263 122.059 50.635C121.886 50.9443 121.813 51.2449 121.84 51.5367C121.873 51.8223 122.016 52.103 122.267 52.3786C122.519 52.6543 122.783 52.8181 123.058 52.8702C123.346 52.9229 123.649 52.8739 123.966 52.7231C124.297 52.5729 124.648 52.3278 125.02 51.9879C125.392 51.648 125.665 51.3234 125.837 51.0141C126.016 50.7117 126.089 50.4177 126.056 50.1321C126.022 49.8465 125.88 49.5659 125.628 49.2903C125.256 48.8837 124.845 48.7164 124.392 48.7884C123.953 48.861 123.454 49.1522 122.896 49.6621Z" fill="white"/>
<path d="M134.088 69.0703C133.702 69.209 133.328 69.2043 132.968 69.0561C132.61 68.9166 132.307 68.6239 132.058 68.1779L132.005 68.1968C132.123 68.7196 132.095 69.1808 131.921 69.5804C131.751 69.9887 131.446 70.2717 131.006 70.4294C130.699 70.5397 130.391 70.5807 130.084 70.5523C129.779 70.5327 129.485 70.4302 129.2 70.2448C128.915 70.0594 128.648 69.7836 128.397 69.4173C128.15 69.0598 127.924 68.5956 127.719 68.0246L126.489 64.5986L133.684 62.0163L134.913 65.4424C135.115 66.0046 135.233 66.5274 135.268 67.0107C135.315 67.4998 135.248 67.9205 135.067 68.273C134.889 68.6343 134.563 68.9 134.088 69.0703ZM130.383 68.3623C130.665 68.2614 130.827 68.0791 130.871 67.8153C130.924 67.5484 130.872 67.1953 130.714 66.7561L130.251 65.4647L128.551 66.0748L129.029 67.4057C129.161 67.7747 129.336 68.0541 129.553 68.244C129.782 68.4395 130.058 68.4789 130.383 68.3623ZM133.216 67.1373C133.445 67.0554 133.58 66.9076 133.622 66.6941C133.665 66.4805 133.624 66.2025 133.501 65.8599L133.005 64.4763L131.582 64.9871L131.998 66.1466C132.146 66.5595 132.315 66.8509 132.505 67.0207C132.707 67.1962 132.944 67.2351 133.216 67.1373Z" fill="white"/>
<path d="M138.003 82.3884C138.069 83.4129 137.895 84.2097 137.483 84.7786C137.08 85.3562 136.423 85.6742 135.51 85.7328L130.424 86.0589L130.331 84.6059L131.339 84.1344L131.336 84.0785C131.052 83.8816 130.814 83.6724 130.622 83.4509C130.431 83.2387 130.288 82.986 130.195 82.6927C130.092 82.4093 130.027 82.0534 130 81.625C129.971 81.1779 130.029 80.7673 130.173 80.3933C130.328 80.028 130.575 79.7316 130.916 79.504C131.266 79.2758 131.716 79.1441 132.266 79.1088C133.076 79.0569 133.69 79.3027 134.108 79.8464C134.536 80.3895 134.805 81.228 134.915 82.3619L135.042 83.6865L135.377 83.665C135.778 83.6393 136.064 83.5134 136.237 83.2872C136.41 83.0704 136.485 82.7757 136.461 82.4031C136.437 82.0305 136.358 81.6709 136.223 81.3241C136.098 80.9767 135.945 80.6311 135.764 80.2874L137.131 79.5123C137.372 79.9084 137.568 80.3494 137.721 80.8352C137.875 81.3304 137.968 81.8482 138.003 82.3884ZM133.747 82.9559C133.685 82.2865 133.534 81.8285 133.294 81.5821C133.054 81.3356 132.752 81.224 132.389 81.2473C132.072 81.2676 131.85 81.3754 131.722 81.5707C131.603 81.7653 131.554 82.0116 131.573 82.3097C131.602 82.7568 131.756 83.1256 132.037 83.4163C132.327 83.7063 132.714 83.8358 133.198 83.8048L133.827 83.7645L133.747 82.9559Z" fill="white"/>
<path d="M133.154 102.972L133.87 100.57L128.048 98.8344L128.643 96.8353L134.466 98.571L135.182 96.1694L136.685 96.6174L134.657 103.42L133.154 102.972Z" fill="white"/>
<path d="M124.108 114.326C123.635 114.951 123.176 115.417 122.732 115.725C122.295 116.038 121.87 116.19 121.455 116.18C121.035 116.178 120.625 116.024 120.223 115.72C119.829 115.421 119.557 115.069 119.408 114.663C119.253 114.264 119.244 113.806 119.379 113.288C119.522 112.775 119.835 112.199 120.32 111.56L122.519 108.659L128.611 113.277L127.35 114.939L124.996 113.155L124.108 114.326ZM121.461 114.041C121.699 114.221 121.943 114.254 122.194 114.14C122.439 114.033 122.703 113.793 122.985 113.421L123.847 112.284L122.408 111.192L121.529 112.353C121.28 112.68 121.14 112.989 121.107 113.28C121.068 113.579 121.186 113.832 121.461 114.041Z" fill="white"/>
<path d="M101.028 127.344C101.725 127.052 102.371 126.929 102.967 126.974C103.566 127.027 104.106 127.267 104.587 127.693C105.068 128.119 105.484 128.749 105.833 129.585C106.192 130.446 106.339 131.209 106.273 131.874C106.207 132.539 105.969 133.108 105.561 133.583C105.143 134.06 104.594 134.441 103.914 134.726C103.432 134.927 102.994 135.054 102.601 135.107C102.2 135.163 101.839 135.183 101.518 135.165L101.466 133.442C101.818 133.437 102.143 133.417 102.443 133.383C102.733 133.352 103.008 133.283 103.266 133.175C103.602 133.035 103.848 132.836 104.003 132.579C104.163 132.331 104.232 132.024 104.21 131.658C104.184 131.305 104.072 130.892 103.874 130.418C103.68 129.953 103.462 129.589 103.221 129.325C102.974 129.074 102.707 128.918 102.418 128.857C102.133 128.804 101.831 128.844 101.513 128.977C101.108 129.146 100.772 129.347 100.505 129.58C100.242 129.821 100.003 130.098 99.7897 130.41L99.1043 128.769C99.318 128.457 99.5723 128.194 99.8672 127.98C100.15 127.761 100.537 127.549 101.028 127.344Z" fill="white"/>
<path d="M84.3384 137.313L86.8442 137.344L86.9196 131.268L89.0055 131.294L88.9301 137.37L91.4359 137.401L91.4164 138.969L84.3189 138.881L84.3384 137.313Z" fill="white"/>
<path d="M67.6508 132.411C67.8269 131.801 68.0688 131.283 68.3765 130.857C68.6752 130.429 69.0294 130.094 69.439 129.853C69.8372 129.618 70.2805 129.479 70.7691 129.436C71.2551 129.401 71.7761 129.464 72.332 129.625C72.8431 129.773 73.295 129.991 73.6877 130.279C74.0689 130.574 74.3698 130.928 74.5904 131.341C74.8084 131.764 74.9384 132.238 74.9804 132.765C75.0135 133.29 74.9419 133.857 74.7658 134.467C74.53 135.283 74.1884 135.927 73.7408 136.4C73.2907 136.882 72.7539 137.193 72.1304 137.334C71.5069 137.474 70.8276 137.438 70.0923 137.226C69.4019 137.026 68.8349 136.702 68.3913 136.254C67.9478 135.805 67.6552 135.254 67.5135 134.601C67.3693 133.957 67.415 133.227 67.6508 132.411ZM72.7214 133.876C72.8613 133.392 72.9298 132.97 72.927 132.609C72.9127 132.255 72.8181 131.961 72.6431 131.726C72.4656 131.5 72.1975 131.335 71.8388 131.231C71.4801 131.127 71.1699 131.125 70.9081 131.225C70.6347 131.33 70.402 131.53 70.2101 131.824C70.0067 132.125 69.835 132.517 69.6951 133.002C69.5553 133.486 69.4925 133.905 69.5068 134.259C69.5122 134.61 69.6037 134.899 69.7812 135.125C69.9587 135.351 70.2268 135.516 70.5855 135.62C71.1145 135.773 71.5532 135.7 71.9015 135.402C72.2383 135.111 72.5115 134.602 72.7214 133.876Z" fill="white"/>
<path d="M54.4371 121.873L56.204 122.982L52.9741 128.128L54.5986 129.148C55.273 128.249 55.8804 127.501 56.4207 126.903C56.9482 126.308 57.4303 125.856 57.8672 125.546C58.2962 125.232 58.7031 125.057 59.088 125.023C59.468 124.997 59.8477 125.103 60.2271 125.342C60.4327 125.471 60.6085 125.603 60.7547 125.739C60.9009 125.875 61.0213 126.016 61.116 126.164L60.2304 127.575C60.1633 127.489 60.0897 127.404 60.0097 127.321C59.9298 127.238 59.8384 127.164 59.7356 127.099C59.6249 127.03 59.4949 127.009 59.3454 127.036C59.1881 127.059 58.9965 127.153 58.7706 127.32C58.5368 127.482 58.2588 127.732 57.9367 128.069C57.6145 128.407 57.2382 128.849 56.8078 129.394C56.3646 129.942 55.8523 130.618 55.2711 131.421L50.3737 128.348L54.4371 121.873Z" fill="white"/>
</svg>
